<?xml version="1.0"?>
<svg xmlns:rdf="http://www.w3.org/1999/02/22-rdf-syntax-ns#" xmlns="http://www.w3.org/2000/svg" xmlns:sodipodi="http://inkscape.sourceforge.net/DTD/sodipodi-0.dtd" xmlns:cc="http://web.resource.org/cc/" xmlns:xlink="http://www.w3.org/1999/xlink" xmlns:dc="http://purl.org/dc/elements/1.1/" xmlns:svg="http://www.w3.org/2000/svg" id="svg2" viewBox="0 0 140 190" sodipodi:version="0.32" version="1.0" y="0" x="0" sodipodi:docname="white_s_10.svg" sodipodi:docbase="/home/nicu/Desktop/card_nicu_buculei_01.zip_FILES/cards/white">
  <sodipodi:namedview id="base" bordercolor="#666666" borderopacity="1.0" pagecolor="#ffffff"/>
  <g id="layer1">
    <g id="g5630">
      <path id="rect2070" d="m21 5h103c8.86 0 16 7.136 16 16v153c0 8.86-7.14 16-16 16h-103c-8.864 0-16-7.14-16-16v-153c0-8.864 7.136-16 16-16z" fill-opacity=".49804"/>
      <path id="rect1300" d="m17 1h103c8.86 0 16 7.136 16 16v153c0 8.86-7.14 16-16 16h-103c-8.864 0-16-7.14-16-16v-153c0-8.864 7.136-16 16-16z" fill="#e7e7e7"/>
      <path id="path5624" d="m19 3h103c8.86 0 16 7.136 16 16v153c0 8.86-7.14 16-16 16h-103c-8.864 0-16-7.14-16-16v-153c0-8.864 7.136-16 16-16z" fill="#c7891f"/>
      <path id="rect1306" d="m18 2h103c8.86 0 16 7.136 16 16v153c0 8.86-7.14 16-16 16h-103c-8.864 0-16-7.14-16-16v-153c0-8.864 7.136-16 16-16z" fill="#fff"/>
    </g>
  </g>
  <g id="g1600" transform="matrix(1 0 0 .40081 -239.54 -11.052)">
    <path id="path1561" stroke-linejoin="round" d="m260.18 149.6c-4.84 19.24-19.68 52-10.28 62.12 5.71 4.66 8.42-4.88 9.57-11.19h0.23l-3.79 31.84 8.78-0.1s-3.78-30.6-3.79-31.77h0.09c0.93 5.16 4.46 15.83 8.34 11.77 11.34-11.4-5.36-43.83-9.15-62.67z" fill-rule="evenodd" sodipodi:nodetypes="cccccccccc" stroke="#000" stroke-width=".7589"/>
  </g>
  <path id="path1698" d="m11.677 42.368v-23.59l-5.237-0.069 0.2526-3.622 4.9544-3.089h5.492v30.37m13.434-15.222c0-3.75-0.265-6.389-0.796-7.916-0.52-1.541-1.4-2.311-2.641-2.311-1.24 0-2.125 0.77-2.656 2.311-0.53 1.527-0.795 4.166-0.795 7.916 0 3.791 0.265 6.464 0.795 8.018 0.531 1.554 1.416 2.331 2.656 2.331 1.231 0 2.111-0.777 2.641-2.331 0.531-1.554 0.796-4.227 0.796-8.018m5.777 0.061c0 4.97-0.8 8.807-2.401 11.513-1.601 2.693-3.872 4.039-6.813 4.039-2.951 0-5.227-1.346-6.827-4.039-1.601-2.706-2.401-6.543-2.401-11.513 0-4.983 0.8-8.821 2.401-11.514 1.6-2.706 3.876-4.059 6.827-4.059 2.941 0 5.212 1.353 6.813 4.059 1.601 2.693 2.401 6.531 2.401 11.514"/>
  <g id="g4479" transform="matrix(-1 0 0 -.40081 378.42 199.72)">
    <path id="path4481" stroke-linejoin="round" d="m260.18 149.6c-4.84 19.24-19.68 52-10.28 62.12 5.71 4.66 8.42-4.88 9.57-11.19h0.23l-3.79 31.84 8.78-0.1s-3.78-30.6-3.79-31.77h0.09c0.93 5.16 4.46 15.83 8.34 11.77 11.34-11.4-5.36-43.83-9.15-62.67z" fill-rule="evenodd" sodipodi:nodetypes="cccccccccc" stroke="#000" stroke-width=".7589"/>
  </g>
  <path id="path4483" d="m127.2 146.47v23.59l5.24 0.06-0.25 3.63-4.96 3.09h-5.49v-30.37m-13.43 15.22c0 3.75 0.26 6.39 0.79 7.91 0.52 1.54 1.4 2.31 2.64 2.31s2.13-0.77 2.66-2.31c0.53-1.52 0.79-4.16 0.79-7.91 0-3.79-0.26-6.47-0.79-8.02s-1.42-2.33-2.66-2.33c-1.23 0-2.11 0.78-2.64 2.33s-0.79 4.23-0.79 8.02m-5.78-0.06c0-4.97 0.8-8.81 2.4-11.52 1.6-2.69 3.87-4.04 6.81-4.04 2.95 0 5.23 1.35 6.83 4.04 1.6 2.71 2.4 6.55 2.4 11.52 0 4.98-0.8 8.82-2.4 11.51-1.6 2.71-3.88 4.06-6.83 4.06-2.94 0-5.21-1.35-6.81-4.06-1.6-2.69-2.4-6.53-2.4-11.51"/>
  <g id="g1720" transform="matrix(.59314 0 0 .23894 -105.41 .48105)">
    <path id="path1722" stroke-linejoin="round" d="m260.18 149.6c-4.84 19.24-19.68 52-10.28 62.12 5.71 4.66 8.42-4.88 9.57-11.19h0.23l-3.79 31.84 8.78-0.1s-3.78-30.6-3.79-31.77h0.09c0.93 5.16 4.46 15.83 8.34 11.77 11.34-11.4-5.36-43.83-9.15-62.67z" fill-rule="evenodd" sodipodi:nodetypes="cccccccccc" stroke-width=".7589"/>
  </g>
  <g id="g1729" transform="matrix(.59314 0 0 .23894 -85.425 14.585)">
    <path id="path1731" stroke-linejoin="round" d="m260.18 149.6c-4.84 19.24-19.68 52-10.28 62.12 5.71 4.66 8.42-4.88 9.57-11.19h0.23l-3.79 31.84 8.78-0.1s-3.78-30.6-3.79-31.77h0.09c0.93 5.16 4.46 15.83 8.34 11.77 11.34-11.4-5.36-43.83-9.15-62.67z" fill-rule="evenodd" sodipodi:nodetypes="cccccccccc" stroke-width=".7589"/>
  </g>
  <g id="g1733" transform="matrix(.59314 0 0 .23894 -64.27 .39884)">
    <path id="path1735" stroke-linejoin="round" d="m260.18 149.6c-4.84 19.24-19.68 52-10.28 62.12 5.71 4.66 8.42-4.88 9.57-11.19h0.23l-3.79 31.84 8.78-0.1s-3.78-30.6-3.79-31.77h0.09c0.93 5.16 4.46 15.83 8.34 11.77 11.34-11.4-5.36-43.83-9.15-62.67z" fill-rule="evenodd" sodipodi:nodetypes="cccccccccc" stroke-width=".7589"/>
  </g>
  <g id="g1737" transform="matrix(.59314 0 0 .23894 -105.93 35.658)">
    <path id="path1739" stroke-linejoin="round" d="m260.18 149.6c-4.84 19.24-19.68 52-10.28 62.12 5.71 4.66 8.42-4.88 9.57-11.19h0.23l-3.79 31.84 8.78-0.1s-3.78-30.6-3.79-31.77h0.09c0.93 5.16 4.46 15.83 8.34 11.77 11.34-11.4-5.36-43.83-9.15-62.67z" fill-rule="evenodd" sodipodi:nodetypes="cccccccccc" stroke-width=".7589"/>
  </g>
  <g id="g1741" transform="matrix(.59314 0 0 .23894 -65.973 34.483)">
    <path id="path1743" stroke-linejoin="round" d="m260.18 149.6c-4.84 19.24-19.68 52-10.28 62.12 5.71 4.66 8.42-4.88 9.57-11.19h0.23l-3.79 31.84 8.78-0.1s-3.78-30.6-3.79-31.77h0.09c0.93 5.16 4.46 15.83 8.34 11.77 11.34-11.4-5.36-43.83-9.15-62.67z" fill-rule="evenodd" sodipodi:nodetypes="cccccccccc" stroke-width=".7589"/>
  </g>
  <g id="g1745" transform="matrix(-.59314 0 0 -.23894 202.53 155.13)">
    <path id="path1747" stroke-linejoin="round" d="m260.18 149.6c-4.84 19.24-19.68 52-10.28 62.12 5.71 4.66 8.42-4.88 9.57-11.19h0.23l-3.79 31.84 8.78-0.1s-3.78-30.6-3.79-31.77h0.09c0.93 5.16 4.46 15.83 8.34 11.77 11.34-11.4-5.36-43.83-9.15-62.67z" fill-rule="evenodd" sodipodi:nodetypes="cccccccccc" stroke-width=".7589"/>
  </g>
  <g id="g1749" transform="matrix(-.59314 0 0 -.23894 244.2 155.21)">
    <path id="path1751" stroke-linejoin="round" d="m260.18 149.6c-4.84 19.24-19.68 52-10.28 62.12 5.71 4.66 8.42-4.88 9.57-11.19h0.23l-3.79 31.84 8.78-0.1s-3.78-30.6-3.79-31.77h0.09c0.93 5.16 4.46 15.83 8.34 11.77 11.34-11.4-5.36-43.83-9.15-62.67z" fill-rule="evenodd" sodipodi:nodetypes="cccccccccc" stroke-width=".7589"/>
  </g>
  <g id="g1753" transform="matrix(-.59314 0 0 -.23894 223.04 172.76)">
    <path id="path1755" stroke-linejoin="round" d="m260.18 149.6c-4.84 19.24-19.68 52-10.28 62.12 5.71 4.66 8.42-4.88 9.57-11.19h0.23l-3.79 31.84 8.78-0.1s-3.78-30.6-3.79-31.77h0.09c0.93 5.16 4.46 15.83 8.34 11.77 11.34-11.4-5.36-43.83-9.15-62.67z" fill-rule="evenodd" sodipodi:nodetypes="cccccccccc" stroke-width=".7589"/>
  </g>
  <g id="g1757" transform="matrix(-.59314 0 0 -.23894 244.84 185.77)">
    <path id="path1759" stroke-linejoin="round" d="m260.18 149.6c-4.84 19.24-19.68 52-10.28 62.12 5.71 4.66 8.42-4.88 9.57-11.19h0.23l-3.79 31.84 8.78-0.1s-3.78-30.6-3.79-31.77h0.09c0.93 5.16 4.46 15.83 8.34 11.77 11.34-11.4-5.36-43.83-9.15-62.67z" fill-rule="evenodd" sodipodi:nodetypes="cccccccccc" stroke-width=".7589"/>
  </g>
  <g id="g1761" transform="matrix(-.59314 0 0 -.23894 203.71 185.77)">
    <path id="path1763" stroke-linejoin="round" d="m260.18 149.6c-4.84 19.24-19.68 52-10.28 62.12 5.71 4.66 8.42-4.88 9.57-11.19h0.23l-3.79 31.84 8.78-0.1s-3.78-30.6-3.79-31.77h0.09c0.93 5.16 4.46 15.83 8.34 11.77 11.34-11.4-5.36-43.83-9.15-62.67z" fill-rule="evenodd" sodipodi:nodetypes="cccccccccc" stroke-width=".7589"/>
  </g>
  <metadata>
    <rdf:RDF>
      <cc:Work>
        <dc:format>image/svg+xml</dc:format>
        <dc:type rdf:resource="http://purl.org/dc/dcmitype/StillImage"/>
        <cc:license rdf:resource="http://creativecommons.org/licenses/publicdomain/"/>
        <dc:publisher>
          <cc:Agent rdf:about="http://openclipart.org/">
            <dc:title>Openclipart</dc:title>
          </cc:Agent>
        </dc:publisher>
        <dc:title>White deck: 10 of spades</dc:title>
        <dc:date>2009-03-24T12:49:30</dc:date>
        <dc:description>playing card from the "White" set</dc:description>
        <dc:source>http://openclipart.org/detail/23221/white-deck:-10-of-spades-by-nicubunu</dc:source>
        <dc:creator>
          <cc:Agent>
            <dc:title>nicubunu</dc:title>
          </cc:Agent>
        </dc:creator>
        <dc:subject>
          <rdf:Bag>
            <rdf:li>card</rdf:li>
            <rdf:li>cards</rdf:li>
            <rdf:li>clip art</rdf:li>
            <rdf:li>clipart</rdf:li>
            <rdf:li>deck</rdf:li>
            <rdf:li>gambling</rdf:li>
            <rdf:li>game</rdf:li>
            <rdf:li>image</rdf:li>
            <rdf:li>media</rdf:li>
            <rdf:li>play</rdf:li>
            <rdf:li>playing cards</rdf:li>
            <rdf:li>png</rdf:li>
            <rdf:li>public domain</rdf:li>
            <rdf:li>svg</rdf:li>
            <rdf:li>white deck</rdf:li>
          </rdf:Bag>
        </dc:subject>
      </cc:Work>
      <cc:License rdf:about="http://creativecommons.org/licenses/publicdomain/">
        <cc:permits rdf:resource="http://creativecommons.org/ns#Reproduction"/>
        <cc:permits rdf:resource="http://creativecommons.org/ns#Distribution"/>
        <cc:permits rdf:resource="http://creativecommons.org/ns#DerivativeWorks"/>
      </cc:License>
    </rdf:RDF>
  </metadata>
</svg>
