<?xml version="1.0"?>
<svg xmlns:rdf="http://www.w3.org/1999/02/22-rdf-syntax-ns#" xmlns="http://www.w3.org/2000/svg" xmlns:sodipodi="http://inkscape.sourceforge.net/DTD/sodipodi-0.dtd" xmlns:cc="http://web.resource.org/cc/" xmlns:xlink="http://www.w3.org/1999/xlink" xmlns:dc="http://purl.org/dc/elements/1.1/" xmlns:svg="http://www.w3.org/2000/svg" id="svg2" viewBox="0 0 140 190" sodipodi:version="0.32" version="1.0" y="0" x="0" sodipodi:docname="white_s_9.svg" sodipodi:docbase="/home/nicu/Desktop/card_nicu_buculei_01.zip_FILES/cards/white">
  <sodipodi:namedview id="base" bordercolor="#666666" borderopacity="1.0" pagecolor="#ffffff"/>
  <g id="layer1">
    <g id="g5630">
      <path id="rect2070" d="m21 5h103c8.86 0 16 7.136 16 16v153c0 8.86-7.14 16-16 16h-103c-8.864 0-16-7.14-16-16v-153c0-8.864 7.136-16 16-16z" fill-opacity=".49804"/>
      <path id="rect1300" d="m17 1h103c8.86 0 16 7.136 16 16v153c0 8.86-7.14 16-16 16h-103c-8.864 0-16-7.14-16-16v-153c0-8.864 7.136-16 16-16z" fill="#e7e7e7"/>
      <path id="path5624" d="m19 3h103c8.86 0 16 7.136 16 16v153c0 8.86-7.14 16-16 16h-103c-8.864 0-16-7.14-16-16v-153c0-8.864 7.136-16 16-16z" fill="#c7891f"/>
      <path id="rect1306" d="m18 2h103c8.86 0 16 7.136 16 16v153c0 8.86-7.14 16-16 16h-103c-8.864 0-16-7.14-16-16v-153c0-8.864 7.136-16 16-16z" fill="#fff"/>
    </g>
  </g>
  <g id="g5899" transform="matrix(.59314 0 0 .23894 -85.412 49.256)">
    <path id="path5901" stroke-linejoin="round" d="m260.18 149.6c-4.84 19.24-19.68 52-10.28 62.12 5.71 4.66 8.42-4.88 9.57-11.19h0.23l-3.79 31.84 8.78-0.1s-3.78-30.6-3.79-31.77h0.09c0.93 5.16 4.46 15.83 8.34 11.77 11.34-11.4-5.36-43.83-9.15-62.67z" fill-rule="evenodd" sodipodi:nodetypes="cccccccccc" stroke-width=".7589"/>
  </g>
  <g id="g1720" transform="matrix(.59314 0 0 .23894 -105.41 .48105)">
    <path id="path1722" stroke-linejoin="round" d="m260.18 149.6c-4.84 19.24-19.68 52-10.28 62.12 5.71 4.66 8.42-4.88 9.57-11.19h0.23l-3.79 31.84 8.78-0.1s-3.78-30.6-3.79-31.77h0.09c0.93 5.16 4.46 15.83 8.34 11.77 11.34-11.4-5.36-43.83-9.15-62.67z" fill-rule="evenodd" sodipodi:nodetypes="cccccccccc" stroke-width=".7589"/>
  </g>
  <g id="g1733" transform="matrix(.59314 0 0 .23894 -64.27 .39884)">
    <path id="path1735" stroke-linejoin="round" d="m260.18 149.6c-4.84 19.24-19.68 52-10.28 62.12 5.71 4.66 8.42-4.88 9.57-11.19h0.23l-3.79 31.84 8.78-0.1s-3.78-30.6-3.79-31.77h0.09c0.93 5.16 4.46 15.83 8.34 11.77 11.34-11.4-5.36-43.83-9.15-62.67z" fill-rule="evenodd" sodipodi:nodetypes="cccccccccc" stroke-width=".7589"/>
  </g>
  <g id="g1737" transform="matrix(.59314 0 0 .23894 -105.93 35.658)">
    <path id="path1739" stroke-linejoin="round" d="m260.18 149.6c-4.84 19.24-19.68 52-10.28 62.12 5.71 4.66 8.42-4.88 9.57-11.19h0.23l-3.79 31.84 8.78-0.1s-3.78-30.6-3.79-31.77h0.09c0.93 5.16 4.46 15.83 8.34 11.77 11.34-11.4-5.36-43.83-9.15-62.67z" fill-rule="evenodd" sodipodi:nodetypes="cccccccccc" stroke-width=".7589"/>
  </g>
  <g id="g1741" transform="matrix(.59314 0 0 .23894 -65.973 34.483)">
    <path id="path1743" stroke-linejoin="round" d="m260.18 149.6c-4.84 19.24-19.68 52-10.28 62.12 5.71 4.66 8.42-4.88 9.57-11.19h0.23l-3.79 31.84 8.78-0.1s-3.78-30.6-3.79-31.77h0.09c0.93 5.16 4.46 15.83 8.34 11.77 11.34-11.4-5.36-43.83-9.15-62.67z" fill-rule="evenodd" sodipodi:nodetypes="cccccccccc" stroke-width=".7589"/>
  </g>
  <g id="g1745" transform="matrix(-.59314 0 0 -.23894 202.53 155.13)">
    <path id="path1747" stroke-linejoin="round" d="m260.18 149.6c-4.84 19.24-19.68 52-10.28 62.12 5.71 4.66 8.42-4.88 9.57-11.19h0.23l-3.79 31.84 8.78-0.1s-3.78-30.6-3.79-31.77h0.09c0.93 5.16 4.46 15.83 8.34 11.77 11.34-11.4-5.36-43.83-9.15-62.67z" fill-rule="evenodd" sodipodi:nodetypes="cccccccccc" stroke-width=".7589"/>
  </g>
  <g id="g1749" transform="matrix(-.59314 0 0 -.23894 244.2 155.21)">
    <path id="path1751" stroke-linejoin="round" d="m260.18 149.6c-4.84 19.24-19.68 52-10.28 62.12 5.71 4.66 8.42-4.88 9.57-11.19h0.23l-3.79 31.84 8.78-0.1s-3.78-30.6-3.79-31.77h0.09c0.93 5.16 4.46 15.83 8.34 11.77 11.34-11.4-5.36-43.83-9.15-62.67z" fill-rule="evenodd" sodipodi:nodetypes="cccccccccc" stroke-width=".7589"/>
  </g>
  <g id="g1757" transform="matrix(-.59314 0 0 -.23894 244.84 185.77)">
    <path id="path1759" stroke-linejoin="round" d="m260.18 149.6c-4.84 19.24-19.68 52-10.28 62.12 5.71 4.66 8.42-4.88 9.57-11.19h0.23l-3.79 31.84 8.78-0.1s-3.78-30.6-3.79-31.77h0.09c0.93 5.16 4.46 15.83 8.34 11.77 11.34-11.4-5.36-43.83-9.15-62.67z" fill-rule="evenodd" sodipodi:nodetypes="cccccccccc" stroke-width=".7589"/>
  </g>
  <g id="g1761" transform="matrix(-.59314 0 0 -.23894 203.71 185.77)">
    <path id="path1763" stroke-linejoin="round" d="m260.18 149.6c-4.84 19.24-19.68 52-10.28 62.12 5.71 4.66 8.42-4.88 9.57-11.19h0.23l-3.79 31.84 8.78-0.1s-3.78-30.6-3.79-31.77h0.09c0.93 5.16 4.46 15.83 8.34 11.77 11.34-11.4-5.36-43.83-9.15-62.67z" fill-rule="evenodd" sodipodi:nodetypes="cccccccccc" stroke-width=".7589"/>
  </g>
  <path id="path1561" sodipodi:nodetypes="cccccccccc" fill-rule="evenodd" d="m20.645 48.665c-4.925 7.825-20.035 21.149-10.463 25.263 5.811 1.894 8.576-1.983 9.747-4.549h0.235l-3.859 12.946 8.937-0.038s-3.85-12.445-3.859-12.921h0.094c0.946 2.097 4.536 6.439 8.484 4.785 11.546-4.635-5.455-17.824-9.316-25.486z"/>
  <path id="text1768" d="m12.164 41.575v-5.546c1.019 0.576 1.994 1.012 2.924 1.306 0.93 0.282 1.85 0.422 2.758 0.422 1.905 0 3.389-0.636 4.452-1.909 1.063-1.286 1.689-3.188 1.878-5.706-0.754 0.67-1.557 1.172-2.409 1.507-0.853 0.335-1.778 0.502-2.775 0.502-2.536 0-4.585-0.891-6.147-2.672-1.55-1.795-2.326-4.153-2.326-7.073 0-3.229 0.864-5.814 2.592-7.756 1.739-1.943 4.065-2.914 6.978-2.914 3.234 0 5.737 1.32 7.509 3.958 1.772 2.639 2.658 6.37 2.658 11.193 0 4.956-1.036 8.854-3.107 11.694-2.071 2.827-4.912 4.24-8.522 4.24-1.163 0-2.276-0.107-3.34-0.322-1.063-0.201-2.104-0.509-3.123-0.924m7.891-14.447c1.119 0 1.961-0.436 2.526-1.306 0.565-0.884 0.847-2.204 0.847-3.959 0-1.741-0.282-3.054-0.847-3.938s-1.407-1.326-2.526-1.326c-1.118 0-1.96 0.442-2.525 1.326s-0.847 2.197-0.847 3.938c0 1.755 0.282 3.075 0.847 3.959 0.565 0.87 1.407 1.306 2.525 1.306" fill="#0c0c0c"/>
  <path id="path19317" sodipodi:nodetypes="cccccccccc" fill-rule="evenodd" d="m118.04 140c4.92-7.82 20.03-21.15 10.46-25.26-5.81-1.9-8.58 1.98-9.75 4.55h-0.23l3.86-12.95-8.94 0.04s3.85 12.44 3.86 12.92h-0.1c-0.94-2.1-4.53-6.44-8.48-4.79-11.547 4.64 5.45 17.83 9.32 25.49z"/>
  <path id="text19319" d="m126.52 147.59v5.55c-1.02-0.58-2-1.01-2.93-1.31-0.93-0.28-1.85-0.42-2.76-0.42-1.9 0-3.38 0.64-4.45 1.91-1.06 1.28-1.69 3.19-1.88 5.7 0.76-0.67 1.56-1.17 2.41-1.5 0.86-0.34 1.78-0.51 2.78-0.51 2.53 0 4.58 0.9 6.14 2.68 1.56 1.79 2.33 4.15 2.33 7.07 0 3.23-0.86 5.81-2.59 7.76-1.74 1.94-4.07 2.91-6.98 2.91-3.23 0-5.74-1.32-7.51-3.96s-2.66-6.37-2.66-11.19c0-4.96 1.04-8.86 3.11-11.69s4.91-4.24 8.52-4.24c1.17 0 2.28 0.1 3.34 0.32 1.07 0.2 2.11 0.51 3.13 0.92m-7.9 14.45c-1.11 0-1.96 0.43-2.52 1.3-0.57 0.89-0.85 2.21-0.85 3.96 0 1.74 0.28 3.06 0.85 3.94 0.56 0.89 1.41 1.33 2.52 1.33 1.12 0 1.97-0.44 2.53-1.33 0.56-0.88 0.85-2.2 0.85-3.94 0-1.75-0.29-3.07-0.85-3.96-0.56-0.87-1.41-1.3-2.53-1.3" fill="#0c0c0c"/>
  <metadata>
    <rdf:RDF>
      <cc:Work>
        <dc:format>image/svg+xml</dc:format>
        <dc:type rdf:resource="http://purl.org/dc/dcmitype/StillImage"/>
        <cc:license rdf:resource="http://creativecommons.org/licenses/publicdomain/"/>
        <dc:publisher>
          <cc:Agent rdf:about="http://openclipart.org/">
            <dc:title>Openclipart</dc:title>
          </cc:Agent>
        </dc:publisher>
        <dc:title>White deck: 9 of spades</dc:title>
        <dc:date>2009-03-24T12:43:14</dc:date>
        <dc:description>playing card from the "White" set</dc:description>
        <dc:source>http://openclipart.org/detail/23213/white-deck:-9-of-spades-by-nicubunu</dc:source>
        <dc:creator>
          <cc:Agent>
            <dc:title>nicubunu</dc:title>
          </cc:Agent>
        </dc:creator>
        <dc:subject>
          <rdf:Bag>
            <rdf:li>card</rdf:li>
            <rdf:li>cards</rdf:li>
            <rdf:li>clip art</rdf:li>
            <rdf:li>clipart</rdf:li>
            <rdf:li>deck</rdf:li>
            <rdf:li>gambling</rdf:li>
            <rdf:li>game</rdf:li>
            <rdf:li>image</rdf:li>
            <rdf:li>media</rdf:li>
            <rdf:li>play</rdf:li>
            <rdf:li>playing cards</rdf:li>
            <rdf:li>png</rdf:li>
            <rdf:li>public domain</rdf:li>
            <rdf:li>svg</rdf:li>
            <rdf:li>white deck</rdf:li>
          </rdf:Bag>
        </dc:subject>
      </cc:Work>
      <cc:License rdf:about="http://creativecommons.org/licenses/publicdomain/">
        <cc:permits rdf:resource="http://creativecommons.org/ns#Reproduction"/>
        <cc:permits rdf:resource="http://creativecommons.org/ns#Distribution"/>
        <cc:permits rdf:resource="http://creativecommons.org/ns#DerivativeWorks"/>
      </cc:License>
    </rdf:RDF>
  </metadata>
</svg>
