<?xml version="1.0" encoding="UTF-8" standalone="no"?>
<svg
   xmlns:svg="http://www.w3.org/2000/svg"
   xmlns="http://www.w3.org/2000/svg"
   xmlns:xlink="http://www.w3.org/1999/xlink"
   id="svg2"
   height="190.00000"
   width="140.00000"
   y="0.0000000"
   x="0.0000000"
   version="1.0">
  <defs
     id="defs3">
    <linearGradient
       id="linearGradient8305">
      <stop
         id="stop8314"
         offset="0.0000000"
         style="stop-color:#000086;stop-opacity:1.0000000;" />
      <stop
         id="stop8316"
         offset="1.0000000"
         style="stop-color:#005aff;stop-opacity:1.0000000;" />
    </linearGradient>
    <linearGradient
       id="linearGradient2060">
      <stop
         id="stop2062"
         offset="0.0000000"
         style="stop-color:#ebf0d0;stop-opacity:1.0000000;" />
      <stop
         id="stop2064"
         offset="1.0000000"
         style="stop-color:#ffffeb;stop-opacity:1.0000000;" />
    </linearGradient>
    <linearGradient
       gradientTransform="translate(0.000000,-1.000000)"
       gradientUnits="userSpaceOnUse"
       xlink:href="#linearGradient2060"
       id="linearGradient4853"
       y2="128.69501"
       x2="109.00000"
       y1="63.099518"
       x1="2.0000000" />
    <linearGradient
       gradientTransform="scale(0.854242,1.170628)"
       gradientUnits="userSpaceOnUse"
       xlink:href="#linearGradient8305"
       id="linearGradient8318"
       y2="18.728254"
       x2="36.519855"
       y1="146.61710"
       x1="138.23376" />
    <linearGradient
       gradientTransform="scale(0.855373,1.169081)"
       gradientUnits="userSpaceOnUse"
       xlink:href="#linearGradient8305"
       id="linearGradient9086"
       y2="140.45406"
       x2="146.39938"
       y1="17.152563"
       x1="22.029089" />
    <linearGradient
       gradientTransform="scale(2.951602,0.338799)"
       gradientUnits="userSpaceOnUse"
       xlink:href="#linearGradient8305"
       id="linearGradient2085"
       y2="279.00073"
       x2="-6.5410118"
       y1="405.74072"
       x1="-8.6704397" />
    <linearGradient
       gradientTransform="scale(3.018130,0.331331)"
       gradientUnits="userSpaceOnUse"
       xlink:href="#linearGradient8305"
       id="linearGradient2093"
       y2="369.85428"
       x2="-19.597466"
       y1="236.48587"
       x1="-14.811357" />
    <linearGradient
       gradientTransform="scale(1.131842,0.883515)"
       gradientUnits="userSpaceOnUse"
       xlink:href="#linearGradient8305"
       id="linearGradient5592"
       y2="143.28015"
       x2="96.605362"
       y1="69.896172"
       x1="31.777254" />
    <linearGradient
       gradientTransform="scale(1.130132,0.884852)"
       gradientUnits="userSpaceOnUse"
       xlink:href="#linearGradient8305"
       id="linearGradient5604"
       y2="62.768166"
       x2="21.316402"
       y1="145.20065"
       x1="96.483070" />
  </defs>
  <g
     id="g5630">
    <path
       id="rect2070"
       style="fill:#000000;fill-opacity:0.49803922;stroke:none;stroke-width:0.20000000;stroke-miterlimit:4.0000000;stroke-dashoffset:0.0000000;stroke-opacity:1.0000000"
       d="M 21.000000,5.0000000 L 124.00000,5.0000000 C 132.86400,5.0000000 140.00000,12.136000 140.00000,21.000000 L 140.00000,174.00000 C 140.00000,182.86400 132.86400,190.00000 124.00000,190.00000 L 21.000000,190.00000 C 12.136000,190.00000 5.0000000,182.86400 5.0000000,174.00000 L 5.0000000,21.000000 C 5.0000000,12.136000 12.136000,5.0000000 21.000000,5.0000000 z " />
    <path
       id="rect1300"
       style="fill:#ffffff;fill-opacity:1.0000000;stroke:none;stroke-width:0.20000000;stroke-miterlimit:4.0000000;stroke-dashoffset:0.0000000;stroke-opacity:1.0000000"
       d="M 17.000000,1.0000000 L 120.00000,1.0000000 C 128.86400,1.0000000 136.00000,8.1360000 136.00000,17.000000 L 136.00000,170.00000 C 136.00000,178.86400 128.86400,186.00000 120.00000,186.00000 L 17.000000,186.00000 C 8.1360000,186.00000 1.0000000,178.86400 1.0000000,170.00000 L 1.0000000,17.000000 C 1.0000000,8.1360000 8.1360000,1.0000000 17.000000,1.0000000 z " />
    <path
       id="path5624"
       style="fill:#c7891f;fill-opacity:1.0000000;stroke:none;stroke-width:0.20000000;stroke-miterlimit:4.0000000;stroke-dashoffset:0.0000000;stroke-opacity:1.0000000"
       d="M 19.000000,3.0000000 L 122.00000,3.0000000 C 130.86400,3.0000000 138.00000,10.136000 138.00000,19.000000 L 138.00000,172.00000 C 138.00000,180.86400 130.86400,188.00000 122.00000,188.00000 L 19.000000,188.00000 C 10.136000,188.00000 3.0000000,180.86400 3.0000000,172.00000 L 3.0000000,19.000000 C 3.0000000,10.136000 10.136000,3.0000000 19.000000,3.0000000 z " />
    <path
       id="rect1306"
       style="fill:url(#linearGradient4853);fill-opacity:1.0000000;stroke:none;stroke-width:0.20000000;stroke-miterlimit:4.0000000;stroke-dashoffset:0.0000000;stroke-opacity:1.0000000"
       d="M 18.000000,1.9999995 L 121.00000,1.9999995 C 129.86400,1.9999995 137.00000,9.1359995 137.00000,18.000000 L 137.00000,171.00000 C 137.00000,179.86400 129.86400,187.00000 121.00000,187.00000 L 18.000000,187.00000 C 9.1360000,187.00000 2.0000000,179.86400 2.0000000,171.00000 L 2.0000000,18.000000 C 2.0000000,9.1359995 9.1360000,1.9999995 18.000000,1.9999995 z " />
  </g>
  <path
     id="path1385"
     style="fill:url(#linearGradient8318);fill-opacity:1.0000000;stroke:none;stroke-width:0.20000000;stroke-miterlimit:4.0000000;stroke-dashoffset:0.0000000;stroke-opacity:1.0000000"
     d="M 22.166666,10.000000 L 116.58333,10.000000 C 124.70867,10.000000 131.25000,16.541333 131.25000,24.666666 L 131.25000,164.91666 C 131.25000,173.04200 124.70867,179.58333 116.58333,179.58333 L 22.166666,179.58333 C 14.041333,179.58333 7.5000000,173.04200 7.5000000,164.91666 L 7.5000000,24.666666 C 7.5000000,16.541333 14.041333,10.000000 22.166666,10.000000 z " />
  <path
     id="path2154"
     style="fill:url(#linearGradient9086);fill-opacity:1.0000000;stroke:none;stroke-width:1.2500000;stroke-miterlimit:4.0000000;stroke-dashoffset:0.0000000;stroke-opacity:1.0000000"
     d="M 22.156250,9.3750000 C 13.695478,9.3750000 6.8750000,16.195478 6.8750000,24.656250 L 6.8750000,164.90625 C 6.8750000,173.36703 13.695478,180.21875 22.156250,180.21875 L 116.59375,180.21875 C 125.05453,180.21875 131.87500,173.36703 131.87500,164.90625 L 131.87500,24.656250 C 131.87500,16.195478 125.05453,9.3750000 116.59375,9.3750000 L 22.156250,9.3750000 z M 22.156250,10.625000 L 116.59375,10.625000 C 124.38365,10.625000 130.62500,16.866356 130.62500,24.656250 L 130.62500,164.90625 C 130.62500,172.69615 124.38365,178.96875 116.59375,178.96875 L 22.156250,178.96875 C 14.366356,178.96875 8.1250000,172.69615 8.1250000,164.90625 L 8.1250000,24.656250 C 8.1250000,16.866356 14.366356,10.625000 22.156250,10.625000 z " />
  <path
     id="path6344"
     style="fill:url(#linearGradient5592);fill-opacity:1.0000000;stroke:none;stroke-width:0.20000000;stroke-miterlimit:4.0000000;stroke-dashoffset:0.0000000;stroke-opacity:1.0000000"
     d="M 78.814567,48.952135 L 66.033317,50.420885 L 58.720817,49.577135 C 56.547193,49.320443 54.583401,50.203210 53.189567,51.670885 L 51.845817,52.077135 L 36.252067,53.889635 C 33.629977,54.193759 31.598957,56.000819 30.783317,58.327135 L 15.783317,62.795885 C 12.247757,63.846508 10.263947,67.541580 11.314567,71.077135 L 29.439567,132.10839 C 29.992247,133.96826 31.301017,135.35004 32.908317,136.13964 C 33.090247,136.24954 33.279217,136.32888 33.470817,136.42089 C 33.722307,136.57157 33.982767,136.67956 34.252067,136.79589 C 35.837257,137.84966 37.807717,138.28921 39.783317,137.70214 L 66.689567,129.70214 L 71.939567,130.32714 L 92.595817,139.54589 C 95.964323,141.04827 99.874691,139.53940 101.37707,136.17089 L 127.31457,78.014635 C 128.15869,76.122020 127.97808,74.104185 127.12707,72.389635 C 127.05339,72.133184 127.01212,71.885256 126.90832,71.639635 C 126.83577,71.412484 126.75478,71.201441 126.65832,70.983385 C 126.08301,69.292091 124.86357,67.834314 123.09582,67.045885 L 107.87707,60.233385 C 107.58041,59.611693 107.22180,59.045575 106.75207,58.545885 C 106.58168,58.283974 106.42611,58.031189 106.22082,57.795885 C 106.10479,57.635245 105.97570,57.508054 105.84582,57.358385 C 104.79467,55.892453 103.22415,54.806335 101.28332,54.577135 L 92.939567,53.577135 L 83.970817,49.577135 C 82.896838,49.098133 81.779623,49.013415 80.689567,49.108385 C 80.079858,49.005345 79.461170,48.877138 78.814567,48.952135 z " />
  <path
     id="path5594"
     style="fill:url(#linearGradient5604);fill-opacity:1.0000000;stroke:none;stroke-width:1.2500000;stroke-miterlimit:4.0000000;stroke-dashoffset:0.0000000;stroke-opacity:1.0000000"
     d="M 78.750000,48.343750 L 66.093750,49.812500 L 65.968750,49.812500 L 58.781250,48.968750 C 56.512483,48.700824 54.495928,49.606496 53.000000,51.062500 L 51.656250,51.468750 L 36.187500,53.281250 C 33.455927,53.598074 31.310241,55.416462 30.343750,57.781250 L 15.593750,62.187500 C 11.735827,63.333918 9.5730688,67.394544 10.718750,71.250000 L 28.843750,132.28125 C 29.444526,134.30298 30.865734,135.79518 32.593750,136.65625 L 32.593750,136.68750 C 32.601239,136.69121 32.617500,136.68382 32.625000,136.68750 C 32.835239,136.81143 32.994910,136.89231 33.156250,136.96875 C 33.163838,136.97235 33.180045,136.96517 33.187500,136.96875 C 33.443575,137.11941 33.676805,137.21403 33.906250,137.31250 C 33.938384,137.32629 33.968558,137.36142 34.000000,137.37500 L 34.000000,137.34375 C 35.703986,138.44621 37.837516,138.94582 39.968750,138.31250 L 66.812500,130.34375 L 71.687500,130.90625 L 71.718750,130.90625 L 92.343750,140.12500 C 96.018761,141.76409 100.29907,140.11105 101.93750,136.43750 L 127.87500,78.281250 C 128.78524,76.240400 128.60359,74.058513 127.71875,72.218750 C 127.71163,72.193969 127.69431,72.151502 127.68750,72.125000 C 127.63778,71.931470 127.58141,71.714273 127.46875,71.437500 C 127.46574,71.428139 127.47179,71.415571 127.46875,71.406250 C 127.39970,71.194297 127.33734,70.983506 127.25000,70.781250 C 127.24253,70.759295 127.22642,70.740636 127.21875,70.718750 C 126.58266,68.903868 125.25257,67.320097 123.34375,66.468750 L 108.28125,59.718750 C 108.00493,59.185195 107.69675,58.677737 107.28125,58.218750 C 107.26324,58.191065 107.23700,58.153328 107.21875,58.125000 C 107.08106,57.911233 106.91500,57.671529 106.71875,57.437500 C 106.70253,57.415045 106.70352,57.395947 106.68750,57.375000 C 106.56820,57.219062 106.43647,57.103218 106.34375,57.000000 C 106.33130,56.986135 106.32419,56.950970 106.31250,56.937500 L 106.28125,56.937500 C 105.14313,55.386231 103.44194,54.216534 101.34375,53.968750 L 93.187500,53.000000 L 93.156250,53.000000 L 84.218750,49.000000 C 83.075013,48.489888 81.895458,48.419788 80.781250,48.500000 C 80.735810,48.492321 80.671490,48.508130 80.625000,48.500000 C 80.063544,48.401812 79.463799,48.260959 78.750000,48.343750 z M 78.875000,49.562500 C 79.395302,49.502152 79.968545,49.613093 80.593750,49.718750 L 80.656250,49.750000 L 80.750000,49.718750 C 81.771252,49.629774 82.766993,49.731762 83.718750,50.156250 L 92.687500,54.156250 L 92.781250,54.187500 L 92.875000,54.187500 L 101.21875,55.187500 C 102.97020,55.394335 104.37921,56.373598 105.34375,57.718750 L 105.34375,57.750000 L 105.37500,57.781250 C 105.52436,57.953368 105.63987,58.047045 105.71875,58.156250 L 105.71875,58.187500 L 105.75000,58.218750 C 105.91234,58.404830 106.04295,58.604770 106.21875,58.875000 L 106.25000,58.937500 L 106.28125,58.968750 C 106.69836,59.412459 107.03664,59.921899 107.31250,60.500000 L 107.40625,60.718750 L 107.62500,60.812500 L 122.84375,67.625000 C 124.44741,68.340244 125.53864,69.647467 126.06250,71.187500 L 126.06250,71.218750 L 126.09375,71.250000 C 126.18222,71.449983 126.24683,71.638147 126.31250,71.843750 L 126.34375,71.875000 C 126.41197,72.036428 126.44516,72.262837 126.53125,72.562500 L 126.53125,72.625000 L 126.56250,72.656250 C 127.34234,74.227422 127.51330,76.038603 126.75000,77.750000 L 100.81250,135.90625 C 99.446172,138.96972 95.905750,140.33443 92.843750,138.96875 L 72.187500,129.75000 L 72.093750,129.71875 L 72.000000,129.71875 L 66.750000,129.09375 L 66.625000,129.06250 L 66.500000,129.09375 L 39.593750,137.09375 C 37.808575,137.62423 36.046812,137.24719 34.593750,136.28125 L 34.562500,136.25000 L 34.500000,136.21875 C 34.225279,136.10008 33.982460,135.99556 33.781250,135.87500 L 33.750000,135.84375 C 33.540217,135.74301 33.350661,135.67344 33.218750,135.59375 L 33.187500,135.59375 C 31.718686,134.87218 30.531264,133.62015 30.031250,131.93750 L 11.906250,70.906250 C 10.950691,67.690596 12.755554,64.361081 15.968750,63.406250 L 30.968750,58.937500 L 31.281250,58.843750 L 31.375000,58.531250 C 32.116891,56.415275 33.935173,54.775737 36.312500,54.500000 L 51.906250,52.687500 L 51.968750,52.687500 L 52.031250,52.687500 L 53.375000,52.281250 L 53.531250,52.218750 L 53.656250,52.093750 C 54.934399,50.747889 56.691907,49.955525 58.656250,50.187500 L 65.968750,51.031250 L 66.031250,51.062500 L 66.093750,51.031250 L 78.875000,49.562500 z " />
</svg>
